<svg width="16" height="31" viewBox="0 0 16 31" fill="none" xmlns="http://www.w3.org/2000/svg">
<path d="M15.8036 8.67857C15.6429 8.51786 15.4286 8.41071 15.1964 8.41071C15.125 8.41071 15.0536 8.42857 14.9821 8.44643L7.91071 10.1964L10.9643 1.92857C11.0179 1.82143 11.0536 1.71428 11.0536 1.60714C11.0536 1.19643 10.6964 0.857141 10.25 0.857141H4.39286C4.01786 0.857141 3.69643 1.08928 3.60714 1.42857L0.0178571 16.1607C-0.0357143 16.4107 0.0357143 16.6786 0.25 16.8571C0.392857 16.9821 0.607143 17.0536 0.803571 17.0536C0.875 17.0536 0.946429 17.0536 1.01786 17.0357L8.26786 15.2321L4.75 29.6607C4.66071 30.0357 4.89286 30.4107 5.28571 30.5357C5.375 30.5536 5.46429 30.5714 5.53571 30.5714C5.85714 30.5714 6.14286 30.3929 6.28571 30.125L15.9286 9.46428C16.0536 9.19643 16 8.89286 15.8036 8.67857Z" fill="#FF8B38"/>
</svg>
