<svg width="35" height="21" viewBox="0 0 35 21" fill="none" xmlns="http://www.w3.org/2000/svg">
<path d="M6.85714 14.4286C6.85714 14.2679 6.73214 14.1429 6.57143 14.1429H4.85714C4.69643 14.1429 4.57143 14.2679 4.57143 14.4286V16.1429C4.57143 16.3036 4.69643 16.4286 4.85714 16.4286H6.57143C6.73214 16.4286 6.85714 16.3036 6.85714 16.1429V14.4286ZM9.14286 9.85714C9.14286 9.69643 9.01786 9.57143 8.85714 9.57143H4.85714C4.69643 9.57143 4.57143 9.69643 4.57143 9.85714V11.5714C4.57143 11.7321 4.69643 11.8571 4.85714 11.8571H8.85714C9.01786 11.8571 9.14286 11.7321 9.14286 11.5714V9.85714ZM6.85714 5.28571C6.85714 5.125 6.73214 5 6.57143 5H4.85714C4.69643 5 4.57143 5.125 4.57143 5.28571V7C4.57143 7.16071 4.69643 7.28571 4.85714 7.28571H6.57143C6.73214 7.28571 6.85714 7.16071 6.85714 7V5.28571ZM25.1429 14.4286C25.1429 14.2679 25.0179 14.1429 24.8571 14.1429H9.42857C9.26786 14.1429 9.14286 14.2679 9.14286 14.4286V16.1429C9.14286 16.3036 9.26786 16.4286 9.42857 16.4286H24.8571C25.0179 16.4286 25.1429 16.3036 25.1429 16.1429V14.4286ZM13.7143 9.85714C13.7143 9.69643 13.5893 9.57143 13.4286 9.57143H11.7143C11.5536 9.57143 11.4286 9.69643 11.4286 9.85714V11.5714C11.4286 11.7321 11.5536 11.8571 11.7143 11.8571H13.4286C13.5893 11.8571 13.7143 11.7321 13.7143 11.5714V9.85714ZM11.4286 5.28571C11.4286 5.125 11.3036 5 11.1429 5H9.42857C9.26786 5 9.14286 5.125 9.14286 5.28571V7C9.14286 7.16071 9.26786 7.28571 9.42857 7.28571H11.1429C11.3036 7.28571 11.4286 7.16071 11.4286 7V5.28571ZM18.2857 9.85714C18.2857 9.69643 18.1607 9.57143 18 9.57143H16.2857C16.125 9.57143 16 9.69643 16 9.85714V11.5714C16 11.7321 16.125 11.8571 16.2857 11.8571H18C18.1607 11.8571 18.2857 11.7321 18.2857 11.5714V9.85714ZM16 5.28571C16 5.125 15.875 5 15.7143 5H14C13.8393 5 13.7143 5.125 13.7143 5.28571V7C13.7143 7.16071 13.8393 7.28571 14 7.28571H15.7143C15.875 7.28571 16 7.16071 16 7V5.28571ZM22.8571 9.85714C22.8571 9.69643 22.7321 9.57143 22.5714 9.57143H20.8571C20.6964 9.57143 20.5714 9.69643 20.5714 9.85714V11.5714C20.5714 11.7321 20.6964 11.8571 20.8571 11.8571H22.5714C22.7321 11.8571 22.8571 11.7321 22.8571 11.5714V9.85714ZM29.7143 14.4286C29.7143 14.2679 29.5893 14.1429 29.4286 14.1429H27.7143C27.5536 14.1429 27.4286 14.2679 27.4286 14.4286V16.1429C27.4286 16.3036 27.5536 16.4286 27.7143 16.4286H29.4286C29.5893 16.4286 29.7143 16.3036 29.7143 16.1429V14.4286ZM20.5714 5.28571C20.5714 5.125 20.4464 5 20.2857 5H18.5714C18.4107 5 18.2857 5.125 18.2857 5.28571V7C18.2857 7.16071 18.4107 7.28571 18.5714 7.28571H20.2857C20.4464 7.28571 20.5714 7.16071 20.5714 7V5.28571ZM25.1429 5.28571C25.1429 5.125 25.0179 5 24.8571 5H23.1429C22.9821 5 22.8571 5.125 22.8571 5.28571V7C22.8571 7.16071 22.9821 7.28571 23.1429 7.28571H24.8571C25.0179 7.28571 25.1429 7.16071 25.1429 7V5.28571ZM29.7143 5.28571C29.7143 5.125 29.5893 5 29.4286 5H27.7143C27.5536 5 27.4286 5.125 27.4286 5.28571V9.57143H25.4286C25.2679 9.57143 25.1429 9.69643 25.1429 9.85714V11.5714C25.1429 11.7321 25.2679 11.8571 25.4286 11.8571H29.4286C29.5893 11.8571 29.7143 11.7321 29.7143 11.5714V5.28571ZM32 18.7143H2.28571V2.71428H32V18.7143ZM34.2857 2.71428C34.2857 1.44643 33.2679 0.42857 32 0.42857H2.28571C1.01786 0.42857 0 1.44643 0 2.71428V18.7143C0 19.9821 1.01786 21 2.28571 21H32C33.2679 21 34.2857 19.9821 34.2857 18.7143V2.71428Z" fill="#FF8B38"/>
</svg>
