<svg width="19" height="29" viewBox="0 0 19 29" fill="none" xmlns="http://www.w3.org/2000/svg">
<path d="M13.1429 8.85714C13.1429 6.875 10.8036 6 9.14286 6C8.83929 6 8.57143 6.26786 8.57143 6.57143C8.57143 6.875 8.83929 7.14286 9.14286 7.14286C10.0893 7.14286 12 7.625 12 8.85714C12 9.16071 12.2679 9.42857 12.5714 9.42857C12.875 9.42857 13.1429 9.16071 13.1429 8.85714ZM16 8.85714C16 10 15.5357 11.1964 14.7857 12.0714C14.4464 12.4643 14.0536 12.8393 13.6964 13.25C12.4286 14.7679 11.3571 16.5536 11.1786 18.5714H7.10714C6.92857 16.5536 5.85714 14.7679 4.58929 13.25C4.23214 12.8393 3.83929 12.4643 3.5 12.0714C2.75 11.1964 2.28571 10 2.28571 8.85714C2.28571 5.28571 5.91071 3.14286 9.14286 3.14286C12.375 3.14286 16 5.28571 16 8.85714ZM18.2857 8.85714C18.2857 4 13.6607 0.857141 9.14286 0.857141C4.625 0.857141 0 4 0 8.85714C0 10.6964 0.607143 12.2857 1.83929 13.6429C3.07143 15 4.69643 16.9107 4.83929 18.8214C4.32143 19.125 4 19.6964 4 20.2857C4 20.7143 4.16071 21.125 4.44643 21.4286C4.16071 21.7321 4 22.1429 4 22.5714C4 23.1607 4.30357 23.6964 4.80357 24.0179C4.66071 24.2679 4.57143 24.5714 4.57143 24.8571C4.57143 26.0179 5.48214 26.5714 6.51786 26.5714C6.98214 27.6071 8.01786 28.2857 9.14286 28.2857C10.2679 28.2857 11.3036 27.6071 11.7679 26.5714C12.8036 26.5714 13.7143 26.0179 13.7143 24.8571C13.7143 24.5714 13.625 24.2679 13.4821 24.0179C13.9821 23.6964 14.2857 23.1607 14.2857 22.5714C14.2857 22.1429 14.125 21.7321 13.8393 21.4286C14.125 21.125 14.2857 20.7143 14.2857 20.2857C14.2857 19.6964 13.9643 19.125 13.4464 18.8214C13.5893 16.9107 15.2143 15 16.4464 13.6429C17.6786 12.2857 18.2857 10.6964 18.2857 8.85714Z" fill="#FF8B38"/>
</svg>
